<svg xmlns="http://www.w3.org/2000/svg" xmlns:xlink="http://www.w3.org/1999/xlink" id="Layer_1" x="0" y="0" version="1.1" viewBox="0 0 18 18" xml:space="preserve" style="enable-background:new 0 0 18 18"><style type="text/css">.st0{fill:url(#SVGID_1_)}</style><linearGradient id="SVGID_1_" x1="9" x2="9" y1="2" y2="20" gradientTransform="matrix(1 0 0 -1 0 20)" gradientUnits="userSpaceOnUse"><stop offset="0" style="stop-color:#32bedd"/><stop offset=".576" style="stop-color:#32ceef"/><stop offset="1" style="stop-color:#32d4f5"/></linearGradient><path d="M18,10V7.9l-0.3-0.1l-2.2-0.7l-0.6-1.4l1.1-2.4l-1.4-1.4L14.3,2l-2,1l-1.4-0.6L10,0H7.9L7.8,0.3L7.1,2.5	L5.7,3.1L3.3,1.9L1.9,3.4l0.1,0.3l1,2.1L2.5,7.1L0,8v2.1l0.3,0.1l2.2,0.7l0.6,1.4l-1.1,2.4l1.4,1.4L3.7,16l2.1-1l1.4,0.6L8,18h2.1	l0.1-0.3l0.7-2.2l1.4-0.6l2.4,1.1l1.4-1.4L16,14.3l-1-2l0.6-1.4L18,10z M9,12.9c-2.2,0-4-1.8-4-3.9s1.8-4,4-4s3.9,1.8,3.9,4l0,0	C13,11.2,11.2,12.9,9,12.9C9,13,9,13,9,12.9z" class="st0"/></svg>